<?xml version="1.0" encoding="UTF-8" standalone="no"?>
<!-- Created with Inkscape (http://www.inkscape.org/) -->

<svg
   width="512"
   height="512"
   viewBox="0 0 512 512"
   version="1.1"
   id="svg1"
   xmlns="http://www.w3.org/2000/svg"
   xmlns:svg="http://www.w3.org/2000/svg"
   xmlns:rdf="http://www.w3.org/1999/02/22-rdf-syntax-ns#"
   xmlns:cc="http://creativecommons.org/ns#"
   xmlns:dc="http://purl.org/dc/elements/1.1/">
  <title
     id="title5">Drawbridge Unknown</title>
  <defs
     id="defs1">
    <rect
       x="188.48127"
       y="66.090836"
       width="120.3506"
       height="248.86055"
       id="rect2" />
    <rect
       x="154.61992"
       y="91.38486"
       width="214.59123"
       height="325.15059"
       id="rect1" />
  </defs>
  <g
     id="layer2">
    <path
       id="path1"
       style="fill:#b3b3b3;stroke-width:1.14529;fill-opacity:1"
       d="M 256,2 A 254,254 0 0 0 2,256 254,254 0 0 0 256,510 254,254 0 0 0 510,256 254,254 0 0 0 256,2 Z m -1,14 A 239,239 0 0 1 494,255 239,239 0 0 1 255,494 239,239 0 0 1 16,255 239,239 0 0 1 255,16 Z" />
    <text
       xml:space="preserve"
       id="text2"
       style="font-style:normal;font-variant:normal;font-weight:normal;font-stretch:normal;font-size:192px;font-family:Arial;-inkscape-font-specification:Arial;white-space:pre;shape-inside:url(#rect2);display:inline;fill:#e8e8e8;fill-opacity:1"
       transform="matrix(2.1236802,0,0,2.3608317,-270.80618,-159.32528)"><tspan
         x="188.48047"
         y="239.03665"
         id="tspan4"><tspan
           style="font-weight:900;-inkscape-font-specification:'Arial Heavy'"
           id="tspan3">?</tspan></tspan></text>
    <path
       id="rect3-2"
       style="fill:#b3b3b3;stroke-width:0.957827"
       d="m 128.65742,208.49374 c -0.64048,0 -1.15687,1.4157 -1.15687,3.17425 v 61.64087 c 0,1.75853 0.51639,3.17425 1.15687,3.17425 h 1.99239 c 14.70362,-5.63895 99.22871,-37.44151 122.37936,-32.3285 0.22869,-0.2171 0.48676,-0.34409 0.76135,-0.34409 h 4.82854 v -32.14253 c 0,-1.75855 -0.51641,-3.17425 -1.15688,-3.17425 z" />
    <path
       id="path5-5"
       style="fill:#b3b3b3;stroke-width:0.957827"
       d="m 388.87985,208.49374 c 0.64048,0 1.15686,1.4157 1.15686,3.17425 v 61.64087 c 0,1.75853 -0.51638,3.17425 -1.15686,3.17425 h -1.99239 c -14.70362,-5.63895 -99.22871,-37.44151 -122.37936,-32.3285 -0.22869,-0.2171 -0.48676,-0.34409 -0.76136,-0.34409 h -4.82853 v -32.14253 c 0,-1.75855 0.5164,-3.17425 1.15687,-3.17425 z" />
    <rect
       style="fill:#cccccc;stroke-width:1.36031"
       id="rect1-6"
       width="67.500549"
       height="222.95457"
       x="60"
       y="142.233"
       rx="0.84375691" />
    <rect
       style="fill:#cccccc;stroke-width:1.36031"
       id="rect2-9"
       width="67.500549"
       height="222.95457"
       x="389.06519"
       y="142.233"
       rx="0.84375691" />
    <text
       xml:space="preserve"
       id="text1"
       style="white-space:pre;shape-inside:url(#rect1);display:inline;fill:#b3b3b3;fill-opacity:1" />
  </g>
  <g
     id="layer1" />
  <metadata
     id="metadata5">
    <rdf:RDF>
      <cc:Work
         rdf:about="">
        <dc:title>Drawbridge Unknown</dc:title>
      </cc:Work>
    </rdf:RDF>
  </metadata>
</svg>
