<?xml version="1.0" encoding="UTF-8" standalone="no"?>
<!-- Created with Inkscape (http://www.inkscape.org/) -->

<svg
   width="512"
   height="512"
   viewBox="0 0 512 512"
   version="1.1"
   id="svg1"
   inkscape:version="1.3 (0e150ed6c4, 2023-07-21)"
   sodipodi:docname="Drawbridge_iconClosed.svg"
   xmlns:inkscape="http://www.inkscape.org/namespaces/inkscape"
   xmlns:sodipodi="http://sodipodi.sourceforge.net/DTD/sodipodi-0.dtd"
   xmlns="http://www.w3.org/2000/svg"
   xmlns:svg="http://www.w3.org/2000/svg"
   xmlns:rdf="http://www.w3.org/1999/02/22-rdf-syntax-ns#"
   xmlns:cc="http://creativecommons.org/ns#"
   xmlns:dc="http://purl.org/dc/elements/1.1/">
  <title
     id="title5">Drawbridge</title>
  <sodipodi:namedview
     id="namedview1"
     pagecolor="#ffffff"
     bordercolor="#000000"
     borderopacity="0.25"
     inkscape:showpageshadow="2"
     inkscape:pageopacity="0.0"
     inkscape:pagecheckerboard="0"
     inkscape:deskcolor="#d1d1d1"
     inkscape:document-units="px"
     inkscape:zoom="2.4511719"
     inkscape:cx="268.03506"
     inkscape:cy="226.62629"
     inkscape:window-width="2560"
     inkscape:window-height="1511"
     inkscape:window-x="-9"
     inkscape:window-y="-9"
     inkscape:window-maximized="1"
     inkscape:current-layer="layer2" />
  <defs
     id="defs1" />
  <g
     inkscape:groupmode="layer"
     id="layer2"
     inkscape:label="Layer 2">
    <path
       id="rect3"
       style="fill:#abc837;fill-opacity:1;stroke-width:0.957827"
       d="m 128.65742,208.49421 c -0.64048,0 -1.15687,1.4157 -1.15687,3.17425 v 61.64087 c 0,1.75853 0.51639,3.17425 1.15687,3.17425 h 1.99239 c 14.70362,-5.63895 99.22871,-37.44151 122.37936,-32.3285 0.22869,-0.2171 0.48676,-0.34409 0.76135,-0.34409 h 4.82854 v -32.14253 c 0,-1.75855 -0.51641,-3.17425 -1.15688,-3.17425 z" />
    <path
       id="path5"
       style="fill:#abc837;fill-opacity:1;stroke-width:0.957827"
       d="m 388.87985,208.49421 c 0.64048,0 1.15686,1.4157 1.15686,3.17425 v 61.64087 c 0,1.75853 -0.51638,3.17425 -1.15686,3.17425 h -1.99239 c -14.70362,-5.63895 -99.22871,-37.44151 -122.37936,-32.3285 -0.22869,-0.2171 -0.48676,-0.34409 -0.76136,-0.34409 h -4.82853 v -32.14253 c 0,-1.75855 0.5164,-3.17425 1.15687,-3.17425 z" />
    <path
       id="path1"
       style="fill:#bcd35f;stroke-width:1.14529"
       d="M 256,2 A 254,254 0 0 0 2,256 254,254 0 0 0 256,510 254,254 0 0 0 510,256 254,254 0 0 0 256,2 Z m -1,14 A 239,239 0 0 1 494,255 239,239 0 0 1 255,494 239,239 0 0 1 16,255 239,239 0 0 1 255,16 Z" />
  </g>
  <g
     inkscape:label="Layer 1"
     inkscape:groupmode="layer"
     id="layer1">
    <rect
       style="fill:#89a02c;fill-opacity:1;stroke-width:1.36031"
       id="rect1"
       width="67.500549"
       height="222.95457"
       x="60"
       y="142.23347"
       rx="0.84375691" />
    <rect
       style="fill:#89a02c;fill-opacity:1;stroke-width:1.36031"
       id="rect2"
       width="67.500549"
       height="222.95457"
       x="389.06519"
       y="142.23347"
       rx="0.84375691" />
  </g>
  <metadata
     id="metadata5">
    <rdf:RDF>
      <cc:Work
         rdf:about="">
        <dc:title>Drawbridge</dc:title>
      </cc:Work>
    </rdf:RDF>
  </metadata>
</svg>
