<?xml version="1.0" encoding="UTF-8" standalone="no"?>
<!-- Created with Inkscape (http://www.inkscape.org/) -->

<svg
   width="512"
   height="512"
   viewBox="0 0 512 512"
   version="1.1"
   id="svg1"
   inkscape:version="1.3 (0e150ed6c4, 2023-07-21)"
   sodipodi:docname="Drawbridge_circleIcon.svg"
   xmlns:inkscape="http://www.inkscape.org/namespaces/inkscape"
   xmlns:sodipodi="http://sodipodi.sourceforge.net/DTD/sodipodi-0.dtd"
   xmlns="http://www.w3.org/2000/svg"
   xmlns:svg="http://www.w3.org/2000/svg"
   xmlns:rdf="http://www.w3.org/1999/02/22-rdf-syntax-ns#"
   xmlns:cc="http://creativecommons.org/ns#"
   xmlns:dc="http://purl.org/dc/elements/1.1/">
  <title
     id="title5">Drawbridge Up</title>
  <sodipodi:namedview
     id="namedview1"
     pagecolor="#ffffff"
     bordercolor="#000000"
     borderopacity="0.25"
     inkscape:showpageshadow="2"
     inkscape:pageopacity="0.0"
     inkscape:pagecheckerboard="0"
     inkscape:deskcolor="#d1d1d1"
     inkscape:document-units="px"
     inkscape:zoom="2.4511719"
     inkscape:cx="268.03506"
     inkscape:cy="256.40797"
     inkscape:window-width="2560"
     inkscape:window-height="1511"
     inkscape:window-x="-9"
     inkscape:window-y="-9"
     inkscape:window-maximized="1"
     inkscape:current-layer="layer3" />
  <defs
     id="defs1" />
  <g
     inkscape:groupmode="layer"
     id="layer3"
     inkscape:label="Layer 3">
    <circle
       style="fill:#bcd35f;stroke-width:1.14529"
       id="path1"
       cx="256"
       cy="256"
       r="254" />
  </g>
  <g
     inkscape:groupmode="layer"
     id="layer2"
     inkscape:label="Layer 2">
    <path
       id="rect3-6"
       style="fill:#e3e2db;fill-opacity:1;stroke-width:0.957827"
       d="m 95.040238,210.50383 c -0.56802,0.29592 -0.3719,1.79004 0.44061,3.34964 l 28.479902,54.6671 c 0.81249,1.55958 1.92457,2.57654 2.49258,2.28062 l 1.76698,-0.92054 c 10.43476,-11.79449 70.70334,-79.05215 93.59719,-85.21388 0.10251,-0.2982 0.27271,-0.53006 0.51624,-0.65693 l 4.28226,-2.23093 -14.8508,-28.50607 c -0.8125,-1.5596 -1.92458,-2.57653 -2.49259,-2.28062 z" />
    <path
       id="path1-1"
       style="fill:#e3e2db;fill-opacity:1;stroke-width:0.957827"
       d="m 422.2913,210.50383 c 0.56802,0.29592 0.3719,1.79004 -0.44061,3.34964 l -28.4799,54.6671 c -0.81249,1.55958 -1.92457,2.57654 -2.49258,2.28062 l -1.76698,-0.92054 c -10.43476,-11.79449 -70.70334,-79.05215 -93.59719,-85.21388 -0.10251,-0.2982 -0.27271,-0.53006 -0.51624,-0.65693 l -4.28226,-2.23093 14.8508,-28.50607 c 0.8125,-1.5596 1.92458,-2.57653 2.49259,-2.28062 z" />
  </g>
  <g
     inkscape:label="Layer 1"
     inkscape:groupmode="layer"
     id="layer1">
    <rect
       style="fill:#ececec;stroke-width:1.36031"
       id="rect1"
       width="67.500549"
       height="222.95457"
       x="60"
       y="142.23347"
       rx="0.84375691" />
    <rect
       style="fill:#ececec;stroke-width:1.36031"
       id="rect2"
       width="67.500549"
       height="222.95457"
       x="389.06519"
       y="142.23347"
       rx="0.84375691" />
  </g>
  <metadata
     id="metadata5">
    <rdf:RDF>
      <cc:Work
         rdf:about="">
        <dc:title>Drawbridge Up</dc:title>
      </cc:Work>
    </rdf:RDF>
  </metadata>
</svg>
